<svg version="1.1" xmlns="http://www.w3.org/2000/svg" xmlns:xlink="http://www.w3.org/1999/xlink" width="69.06329" height="119.93944" viewBox="0,0,69.06329,119.93944"><g transform="translate(-205.39111,-114.12306)"><g data-paper-data="{&quot;isPaintingLayer&quot;:true}" fill-rule="nonzero" stroke-linecap="butt" stroke-linejoin="miter" stroke-miterlimit="10" stroke-dasharray="" stroke-dashoffset="0" style="mix-blend-mode: normal"><g stroke="#000000" stroke-width="1.25"><path d="M273.06122,168.8125c0,0 4.01085,34.67223 -6.29702,53.77517c-4.73579,8.77655 -21.1721,10.84983 -26.95298,10.84983c-7.95806,0 -22.51313,-0.28321 -28.23662,-14.03755c-7.48365,-17.98424 -5.01338,-50.58745 -5.01338,-50.58745z" fill="#e5e5e5"/><path d="M236.8702,161.59979h-30.55898c0,0 12.71555,-32.07337 28.82229,-34.84651c0.72778,-0.1253 2.20324,-0.19079 2.20324,-0.19079z" data-paper-data="{&quot;index&quot;:null}" fill="#999999"/><path d="M241.53569,126.90021c0,0 1.47547,0.06548 2.20324,0.19079c16.10674,2.77314 28.82229,34.84651 28.82229,34.84651h-30.55898z" data-paper-data="{&quot;index&quot;:null}" fill="#e5e5e5"/></g><path d="M267.25,126.75c0,0.625 -0.625,0.625 -0.625,0.625h-0.25c-3.69849,-0.01609 -9.64008,-0.30605 -12.00703,-3.75956c-1.30552,-1.90482 -2.17319,-5.42373 -4.08966,-6.59541c-1.64761,-1.10174 -5.90385,-2.53272 -7.77394,-1.02334c-1.51378,1.22179 -1.75437,4.738 -1.75437,6.50331c0,0 0,0.625 -0.625,0.625c-0.625,0 -0.625,-0.625 -0.625,-0.625c0,-2.15035 0.38956,-6.01906 2.24563,-7.49669c2.32907,-1.85419 7.13399,-0.41417 9.22606,0.97666c2.10987,1.48684 2.9985,4.70953 4.41034,6.90459c1.97566,3.07167 7.84991,3.25638 10.99297,3.24044h0.25c0,0 0.625,0 0.625,0.625z" fill="#000000" stroke="none" stroke-width="0.5"/><path d="M267.25,127c0,-0.34518 0.27982,-0.625 0.625,-0.625c0.34518,0 0.625,0.27982 0.625,0.625c0,0.34518 -0.27982,0.625 -0.625,0.625c-0.34518,0 -0.625,-0.27982 -0.625,-0.625z" fill="#000000" stroke="none" stroke-width="0.5"/><path d="M269,127c0,-0.34518 0.27982,-0.625 0.625,-0.625c0.34518,0 0.625,0.27982 0.625,0.625c0,0.34518 -0.27982,0.625 -0.625,0.625c-0.34518,0 -0.625,-0.27982 -0.625,-0.625z" fill="#000000" stroke="none" stroke-width="0.5"/><path d="M272,127c0,-0.34518 0.27982,-0.625 0.625,-0.625c0.34518,0 0.625,0.27982 0.625,0.625c0,0.34518 -0.27982,0.625 -0.625,0.625c-0.34518,0 -0.625,-0.27982 -0.625,-0.625z" fill="#000000" stroke="none" stroke-width="0.5"/></g></g></svg>