<svg version="1.1" xmlns="http://www.w3.org/2000/svg" xmlns:xlink="http://www.w3.org/1999/xlink" width="141.52555" height="105.73539" viewBox="0,0,141.52555,105.73539"><g transform="translate(-169.19123,-124.21781)"><g data-paper-data="{&quot;isPaintingLayer&quot;:true}" fill-rule="nonzero" stroke-linejoin="miter" stroke-miterlimit="10" stroke-dasharray="" stroke-dashoffset="0" style="mix-blend-mode: normal"><g stroke="#000000" stroke-width="1.25"><path d="M240.40893,134.26893c6.36186,0.01584 18.92289,0.04711 18.92289,0.04711l2.50996,4.89613v40.90419c0,0 -14.22242,0 -21.4334,0c-7.34649,0 -6.47166,-45.86354 0.00055,-45.84742z" fill="#f2f2f2" stroke-linecap="butt"/><path d="M218.15823,180.11279v-40.90418l2.6621,-4.992c0,0 13.67832,0.03405 20.25424,0.05042c6.24272,0.01554 4.86033,45.84576 -2.66477,45.84576c-6.99633,0 -20.25157,0 -20.25157,0z" fill="#bebebe" stroke-linecap="butt"/><path d="M220.90383,172.37297v-38.18878h38.18878v38.18878z" fill="#e6e6e6" stroke-linecap="butt"/><path d="M218.313,180.12454l2.66477,-7.88327l37.86192,0.11103l2.4427,7.66121z" fill="#f2f2f2" stroke-linecap="round"/></g><text transform="translate(221.43492,166.83084) scale(0.97961,0.97961)" font-size="40" xml:space="preserve" fill="#000000" fill-rule="nonzero" stroke="none" stroke-width="1" stroke-linecap="butt" stroke-linejoin="miter" stroke-miterlimit="10" stroke-dasharray="" stroke-dashoffset="0" font-family="Sans Serif" font-weight="normal" text-anchor="start" style="mix-blend-mode: normal"><tspan x="0" dy="0">W</tspan></text><g stroke="#000000" stroke-width="1.25"><path d="M240.40893,183.14666c6.36186,0.01584 18.92288,0.04711 18.92288,0.04711l2.50996,4.89613v40.90419c0,0 -14.22242,0 -21.43339,0c-7.3465,0 -6.47166,-45.86354 0.00055,-45.84743z" fill="#f2f2f2" stroke-linecap="butt"/><path d="M218.15823,228.99052v-40.90419l2.6621,-4.992c0,0 13.67831,0.03405 20.25423,0.05042c6.24272,0.01554 4.86033,45.84576 -2.66477,45.84576c-6.99633,0 -20.25156,0 -20.25156,0z" fill="#bebebe" stroke-linecap="butt"/><path d="M220.90383,221.25071v-38.18878h38.18878v38.18878z" fill="#e6e6e6" stroke-linecap="butt"/><path d="M218.31301,229.00227l2.66476,-7.88327l37.86192,0.11103l2.4427,7.66121z" fill="#f2f2f2" stroke-linecap="round"/></g><text transform="translate(229.43492,214.20857) scale(0.97961,0.97961)" font-size="40" xml:space="preserve" fill="#000000" fill-rule="nonzero" stroke="none" stroke-width="1" stroke-linecap="butt" stroke-linejoin="miter" stroke-miterlimit="10" stroke-dasharray="" stroke-dashoffset="0" font-family="Sans Serif" font-weight="normal" text-anchor="start" style="mix-blend-mode: normal"><tspan x="0" dy="0">S</tspan></text><g stroke="#000000" stroke-width="1.25"><path d="M288.65893,183.22033c6.36186,0.01584 18.92289,0.04711 18.92289,0.04711l2.50996,4.89613v40.90418c0,0 -14.22242,0 -21.4334,0c-7.3465,0 -6.47166,-45.86353 0.00055,-45.84742z" fill="#f2f2f2" stroke-linecap="butt"/><path d="M266.40823,229.06419v-40.90418l2.6621,-4.992c0,0 13.67831,0.03405 20.25423,0.05042c6.24272,0.01554 4.86033,45.84576 -2.66477,45.84576c-6.99633,0 -20.25157,0 -20.25157,0z" fill="#bebebe" stroke-linecap="butt"/><path d="M269.15383,221.32438v-38.18878h38.18878v38.18878z" fill="#e6e6e6" stroke-linecap="butt"/><path d="M266.563,229.07594l2.66476,-7.88327l37.86192,0.11103l2.44271,7.66121z" fill="#f2f2f2" stroke-linecap="round"/></g><text transform="translate(274.93492,216.03224) scale(0.97961,0.97961)" font-size="40" xml:space="preserve" fill="#000000" fill-rule="nonzero" stroke="none" stroke-width="1" stroke-linecap="butt" stroke-linejoin="miter" stroke-miterlimit="10" stroke-dasharray="" stroke-dashoffset="0" font-family="Sans Serif" font-weight="normal" text-anchor="start" style="mix-blend-mode: normal"><tspan x="0" dy="0">D</tspan></text><g stroke="#000000" stroke-width="1.25"><path d="M192.15893,183.47033c6.36186,0.01584 18.92289,0.04711 18.92289,0.04711l2.50996,4.89613v40.90419c0,0 -14.22242,0 -21.4334,0c-7.3465,0 -6.47166,-45.86354 0.00055,-45.84743z" fill="#f2f2f2" stroke-linecap="butt"/><path d="M169.90823,229.31419v-40.90418l2.6621,-4.992c0,0 13.67831,0.03405 20.25423,0.05042c6.24272,0.01554 4.86033,45.84576 -2.66478,45.84576c-6.99633,0 -20.25156,0 -20.25156,0z" fill="#bebebe" stroke-linecap="butt"/><path d="M172.65383,221.57438v-38.18878h38.18878v38.18878z" fill="#e6e6e6" stroke-linecap="butt"/><path d="M170.063,229.32594l2.66477,-7.88327l37.86191,0.11103l2.44271,7.66121z" fill="#f2f2f2" stroke-linecap="round"/></g><text transform="translate(178.93492,213.78224) scale(0.97961,0.97961)" font-size="40" xml:space="preserve" fill="#000000" fill-rule="nonzero" stroke="none" stroke-width="1" stroke-linecap="butt" stroke-linejoin="miter" stroke-miterlimit="10" stroke-dasharray="" stroke-dashoffset="0" font-family="Sans Serif" font-weight="normal" text-anchor="start" style="mix-blend-mode: normal"><tspan x="0" dy="0">A</tspan></text></g></g></svg>