<svg version="1.1" xmlns="http://www.w3.org/2000/svg" xmlns:xlink="http://www.w3.org/1999/xlink" width="237.16129" height="47.19152" viewBox="0,0,237.16129,47.19152"><g transform="translate(-120.93048,-156.40483)"><g data-paper-data="{&quot;isPaintingLayer&quot;:true}" fill-rule="nonzero" stroke-linejoin="miter" stroke-miterlimit="10" stroke-dasharray="" stroke-dashoffset="0" style="mix-blend-mode: normal"><g stroke="#000000" stroke-width="1.25"><path d="M242.19924,157.11457c34.21458,0.01584 101.76878,0.04711 101.76878,0.04711l13.49876,4.89613v40.90419c0,0 -76.48929,0 -115.2705,0c-39.51,0 -34.80509,-45.86354 0.00296,-45.84742z" fill="#f2f2f2" stroke-linecap="butt"/><path d="M122.53323,202.95842v-40.90418l14.31698,-4.992c0,0 73.56308,0.03405 108.92889,0.05042c33.57384,0.01554 26.13924,45.84576 -14.33134,45.84576c-37.62681,0 -108.91453,0 -108.91453,0z" fill="#bebebe" stroke-linecap="butt"/><path d="M137.29929,195.21861v-38.18878h205.38225v38.18878z" fill="#e6e6e6" stroke-linecap="butt"/><path d="M123.3656,202.97018l14.33134,-7.88327l203.62437,0.11103l13.13703,7.66121z" fill="#f2f2f2" stroke-linecap="round"/></g><text transform="translate(210.64001,186) scale(0.5,0.5)" font-size="40" xml:space="preserve" fill="#000000" fill-rule="nonzero" stroke="none" stroke-width="1" stroke-linecap="butt" stroke-linejoin="miter" stroke-miterlimit="10" stroke-dasharray="" stroke-dashoffset="0" font-family="Sans Serif" font-weight="normal" text-anchor="start" style="mix-blend-mode: normal"><tspan x="0" dy="0">SPACE</tspan></text></g></g></svg>