<svg version="1.1" xmlns="http://www.w3.org/2000/svg" xmlns:xlink="http://www.w3.org/1999/xlink" width="109.65924" height="71.13654" viewBox="0,0,109.65924,71.13654"><g transform="translate(-185.17038,-144.43173)"><g data-paper-data="{&quot;isPaintingLayer&quot;:true}" fill-rule="nonzero" stroke="none" stroke-linecap="butt" stroke-linejoin="miter" stroke-miterlimit="10" stroke-dasharray="" stroke-dashoffset="0" style="mix-blend-mode: normal"><g stroke-width="0"><path d="M187.35137,201.71834c0,-0.73058 -0.63448,-4.79711 1.09284,-5.38814c0.06413,-0.02194 1.22223,-0.79369 3.24903,-0.92969c15.93099,-1.06897 85.53218,-4.26166 99.40536,0.35426c2.1916,0.7292 0.9219,5.14269 0.9219,5.96356c0,7.6491 -23.43099,13.84993 -52.33456,13.84993c-28.90358,0 -52.33456,-6.20083 -52.33456,-13.84993z" data-paper-data="{&quot;index&quot;:null}" fill="#ffca66"/><path d="M188.93576,195.93646c0,-5.15474 84.53483,-6.38971 100.66523,-2.36037c1.70127,0.42497 2.22196,2.95807 1.42571,3.67354c-5.15356,4.63074 -26.08319,8.09653 -51.11866,8.09653c-23.79525,0 -43.88139,-3.13091 -50.23804,-7.41718c-1.36464,-0.92017 -0.73424,-0.9854 -0.73424,-1.99252z" data-paper-data="{&quot;index&quot;:null}" fill="#d2a654"/></g><path d="M288.46734,191.45045c0,7.21022 -21.70289,13.05526 -48.47475,13.05526c-26.77186,0 -48.47475,-5.84504 -48.47475,-13.05526c0,-7.21022 21.70289,-13.05526 48.47475,-13.05526c26.77186,0 48.47475,5.84504 48.47475,13.05526z" fill="#af7646" stroke-width="none"/><path d="M294.82962,191.4554c0,3.57807 -3.47326,1.18374 -12.59095,3.68419c-2.92672,0.80263 -10.02409,-0.85009 -13.61437,-0.30561c-2.19265,0.33252 -4.36346,1.96147 -6.59298,1.89584c-3.71791,-0.10944 -7.59905,-2.10086 -12.01684,-1.92532c-2.81707,0.11194 -6.61623,1.98652 -9.56286,1.98652c-3.11894,0 -7.4907,0.51381 -10.19151,-0.38085c-3.80215,-1.25949 -5.85321,-3.97281 -10.04299,-3.17701c-2.78456,0.5289 -6.42042,1.84685 -8.96375,1.4413c-4.00557,-0.6387 -7.49704,-3.19788 -10.78492,-3.37477c-8.70761,-0.46848 -14.62187,2.11778 -14.62187,-1.2066c0,-4.05639 8.71214,-14.03802 20.59887,-16.43254c9.24193,-1.86174 21.08916,-2.98006 34.00617,-2.98006c10.49397,0 20.28186,0.73811 28.54032,2.01331c14.98126,2.31327 25.83767,14.11359 25.83767,18.76158z" fill="#ffd53a" stroke-width="none"/><path d="M294.15342,184.42185c0,4.68591 -11.01939,1.07559 -26.20532,3.37858c-8.18066,1.24062 -17.83401,1.95705 -28.17268,1.95705c-10.77403,0 -20.80381,-0.77804 -29.19825,-2.11655c-14.6139,-2.33022 -25.4068,-0.00175 -25.4068,-4.58137c0,-4.05639 8.71215,-14.03802 20.59888,-16.43254c1.77913,-0.3584 7.38264,9.10118 11.29761,8.85383c14.11089,-0.89153 49.60216,1.5008 59.96411,0.09725c1.697,-0.22986 -9.65368,-10.06274 -8.71523,-9.91783c14.98126,2.31327 25.83768,14.11359 25.83768,18.76158z" fill="#60a927" stroke-width="none"/><g stroke-width="0"><path d="M229.1148,175.66211c-0.03761,1.88055 -7.94462,3.24751 -17.6608,3.05318c-9.71618,-0.19432 -17.56222,-1.87634 -17.52461,-3.75689c0.03761,-1.88055 7.94463,-3.24751 17.66081,-3.05319c9.71618,0.19432 17.56221,1.87635 17.5246,3.7569z" fill="#a82727"/><path d="M223.91294,174.84511c-0.02717,1.35885 -5.74064,2.34658 -12.76136,2.20617c-7.02072,-0.14041 -12.69011,-1.35581 -12.66293,-2.71466c0.02717,-1.35885 5.74063,-2.34659 12.76135,-2.20617c7.02072,0.14041 12.69012,1.35581 12.66294,2.71466z" fill="#c95d5d"/></g><g stroke-width="0"><path d="M249.78111,178.84573c-0.03761,1.88055 -7.94462,3.24751 -17.6608,3.05318c-9.71618,-0.19432 -17.56222,-1.87634 -17.52461,-3.75689c0.03761,-1.88055 7.94463,-3.24751 17.66081,-3.05319c9.71618,0.19432 17.56221,1.87635 17.5246,3.7569z" fill="#a82727"/><path d="M244.57925,178.02872c-0.02717,1.35885 -5.74063,2.34658 -12.76136,2.20617c-7.02072,-0.14041 -12.69011,-1.35581 -12.66294,-2.71466c0.02717,-1.35885 5.74063,-2.34659 12.76136,-2.20617c7.02072,0.14041 12.69011,1.35581 12.66294,2.71466z" fill="#c95d5d"/></g><g stroke-width="0"><path d="M287.48096,177.94742c-0.03761,1.88055 -7.94462,3.24751 -17.6608,3.05319c-9.71618,-0.19432 -17.56222,-1.87635 -17.52461,-3.7569c0.03761,-1.88055 7.94463,-3.24751 17.66081,-3.05318c9.71618,0.19432 17.56221,1.87634 17.5246,3.75689z" fill="#a82727"/><path d="M282.2791,177.13042c-0.02717,1.35885 -5.74063,2.34658 -12.76136,2.20617c-7.02073,-0.14041 -12.69011,-1.35581 -12.66294,-2.71466c0.02717,-1.35885 5.74063,-2.34658 12.76136,-2.20617c7.02073,0.14041 12.69011,1.35581 12.66294,2.71466z" fill="#c95d5d"/></g><g stroke-width="0"><path d="M238.43223,177.19221c-14.25368,0 -32.20789,-0.47978 -42.68031,-3.66466c-5.56324,-1.69189 -5.88935,-2.66233 -8.49679,-4.44859c-2.28618,-1.56619 0.31834,-1.00098 0.31834,-2.78505c0,-7.6491 103.07979,-7.6491 103.07979,0c0,1.98244 0.26642,1.82415 -2.52562,3.52929c-2.84891,1.73987 -5.17902,3.09859 -10.58489,4.71058c-9.73807,2.90383 -25.55058,2.65843 -39.11052,2.65843z" data-paper-data="{&quot;index&quot;:null}" fill="#d2a654"/><path d="M290.87537,167.81767c0,3.56385 -23.62968,6.37543 -47.89998,6.61836c-27.8211,0.27847 -56.76916,-2.53311 -56.76916,-6.61836c0,-7.6491 22.74984,-23.38594 51.65342,-23.38594c28.90358,0 53.01571,15.73684 53.01571,23.38594z" fill="#ffca66"/></g></g></g></svg>